<mxfile host="app.diagrams.net" agent="Mozilla/5.0 (X11; Linux x86_64; rv:128.0) Gecko/20100101 Firefox/128.0" version="24.8.3">
  <diagram name="Page-1" id="oNSVDk0gemeukSmbQHl4">
    <mxGraphModel dx="1434" dy="755" grid="1" gridSize="10" guides="1" tooltips="1" connect="1" arrows="1" fold="1" page="1" pageScale="1" pageWidth="850" pageHeight="1100" math="0" shadow="0">
      <root>
        <mxCell id="0" />
        <mxCell id="1" parent="0" />
        <mxCell id="56OIhlF2ASQNzn2IoU6j-4" style="edgeStyle=orthogonalEdgeStyle;rounded=0;orthogonalLoop=1;jettySize=auto;html=1;entryX=0.5;entryY=0;entryDx=0;entryDy=0;" edge="1" parent="1" source="56OIhlF2ASQNzn2IoU6j-1" target="56OIhlF2ASQNzn2IoU6j-2">
          <mxGeometry relative="1" as="geometry" />
        </mxCell>
        <mxCell id="56OIhlF2ASQNzn2IoU6j-5" style="edgeStyle=orthogonalEdgeStyle;rounded=0;orthogonalLoop=1;jettySize=auto;html=1;exitX=1;exitY=0.5;exitDx=0;exitDy=0;" edge="1" parent="1" source="56OIhlF2ASQNzn2IoU6j-1" target="56OIhlF2ASQNzn2IoU6j-3">
          <mxGeometry relative="1" as="geometry" />
        </mxCell>
        <mxCell id="56OIhlF2ASQNzn2IoU6j-1" value="&lt;div&gt;node 1&lt;/div&gt;" style="ellipse;whiteSpace=wrap;html=1;aspect=fixed;" vertex="1" parent="1">
          <mxGeometry x="390" y="110" width="75" height="75" as="geometry" />
        </mxCell>
        <mxCell id="56OIhlF2ASQNzn2IoU6j-2" value="cam" style="rounded=1;whiteSpace=wrap;html=1;" vertex="1" parent="1">
          <mxGeometry x="240" y="210" width="120" height="60" as="geometry" />
        </mxCell>
        <mxCell id="56OIhlF2ASQNzn2IoU6j-3" value="mic" style="rounded=1;whiteSpace=wrap;html=1;" vertex="1" parent="1">
          <mxGeometry x="480" y="210" width="120" height="60" as="geometry" />
        </mxCell>
        <mxCell id="56OIhlF2ASQNzn2IoU6j-13" style="edgeStyle=orthogonalEdgeStyle;rounded=0;orthogonalLoop=1;jettySize=auto;html=1;exitX=1;exitY=0.5;exitDx=0;exitDy=0;entryX=0;entryY=0.5;entryDx=0;entryDy=0;" edge="1" parent="1" source="56OIhlF2ASQNzn2IoU6j-8" target="56OIhlF2ASQNzn2IoU6j-10">
          <mxGeometry relative="1" as="geometry" />
        </mxCell>
        <mxCell id="56OIhlF2ASQNzn2IoU6j-14" style="edgeStyle=orthogonalEdgeStyle;rounded=0;orthogonalLoop=1;jettySize=auto;html=1;exitX=1;exitY=0.5;exitDx=0;exitDy=0;entryX=0;entryY=0.5;entryDx=0;entryDy=0;" edge="1" parent="1" source="56OIhlF2ASQNzn2IoU6j-8" target="56OIhlF2ASQNzn2IoU6j-11">
          <mxGeometry relative="1" as="geometry" />
        </mxCell>
        <mxCell id="56OIhlF2ASQNzn2IoU6j-8" value="node 2" style="ellipse;whiteSpace=wrap;html=1;aspect=fixed;" vertex="1" parent="1">
          <mxGeometry x="390" y="400" width="75" height="75" as="geometry" />
        </mxCell>
        <mxCell id="56OIhlF2ASQNzn2IoU6j-10" value="mic 1" style="rounded=1;whiteSpace=wrap;html=1;" vertex="1" parent="1">
          <mxGeometry x="570" y="350" width="120" height="60" as="geometry" />
        </mxCell>
        <mxCell id="56OIhlF2ASQNzn2IoU6j-11" value="mic 2" style="rounded=1;whiteSpace=wrap;html=1;" vertex="1" parent="1">
          <mxGeometry x="570" y="450" width="120" height="60" as="geometry" />
        </mxCell>
        <mxCell id="56OIhlF2ASQNzn2IoU6j-18" style="edgeStyle=orthogonalEdgeStyle;rounded=0;orthogonalLoop=1;jettySize=auto;html=1;exitX=0;exitY=0.5;exitDx=0;exitDy=0;entryX=1;entryY=0.5;entryDx=0;entryDy=0;" edge="1" parent="1" source="56OIhlF2ASQNzn2IoU6j-15" target="56OIhlF2ASQNzn2IoU6j-16">
          <mxGeometry relative="1" as="geometry" />
        </mxCell>
        <mxCell id="56OIhlF2ASQNzn2IoU6j-19" style="edgeStyle=orthogonalEdgeStyle;rounded=0;orthogonalLoop=1;jettySize=auto;html=1;exitX=0;exitY=0.5;exitDx=0;exitDy=0;entryX=1;entryY=0.5;entryDx=0;entryDy=0;" edge="1" parent="1" source="56OIhlF2ASQNzn2IoU6j-15" target="56OIhlF2ASQNzn2IoU6j-17">
          <mxGeometry relative="1" as="geometry" />
        </mxCell>
        <mxCell id="56OIhlF2ASQNzn2IoU6j-21" style="edgeStyle=orthogonalEdgeStyle;rounded=0;orthogonalLoop=1;jettySize=auto;html=1;exitX=1;exitY=0.5;exitDx=0;exitDy=0;entryX=0;entryY=0.5;entryDx=0;entryDy=0;" edge="1" parent="1" source="56OIhlF2ASQNzn2IoU6j-15" target="56OIhlF2ASQNzn2IoU6j-20">
          <mxGeometry relative="1" as="geometry" />
        </mxCell>
        <mxCell id="56OIhlF2ASQNzn2IoU6j-15" value="node 3" style="ellipse;whiteSpace=wrap;html=1;aspect=fixed;" vertex="1" parent="1">
          <mxGeometry x="385" y="650" width="80" height="80" as="geometry" />
        </mxCell>
        <mxCell id="56OIhlF2ASQNzn2IoU6j-16" value="cam 1" style="rounded=1;whiteSpace=wrap;html=1;" vertex="1" parent="1">
          <mxGeometry x="170" y="610" width="120" height="60" as="geometry" />
        </mxCell>
        <mxCell id="56OIhlF2ASQNzn2IoU6j-17" value="&lt;div&gt;cam 2&lt;/div&gt;" style="rounded=1;whiteSpace=wrap;html=1;" vertex="1" parent="1">
          <mxGeometry x="170" y="740" width="120" height="60" as="geometry" />
        </mxCell>
        <mxCell id="56OIhlF2ASQNzn2IoU6j-20" value="mic 1" style="rounded=1;whiteSpace=wrap;html=1;" vertex="1" parent="1">
          <mxGeometry x="560" y="660" width="120" height="60" as="geometry" />
        </mxCell>
      </root>
    </mxGraphModel>
  </diagram>
</mxfile>
